<svg width="24" height="25" viewBox="0 0 24 25" fill="none" xmlns="http://www.w3.org/2000/svg">
<path d="M9.5 4C11.2239 4 12.8772 4.68482 14.0962 5.90381C15.3152 7.12279 16 8.77609 16 10.5C16 12.11 15.41 13.59 14.44 14.73L14.71 15H15.5L20.5 20L19 21.5L14 16.5V15.71L13.73 15.44C12.5505 16.4468 11.0507 16.9999 9.5 17C7.77609 17 6.12279 16.3152 4.90381 15.0962C3.68482 13.8772 3 12.2239 3 10.5C3 8.77609 3.68482 7.12279 4.90381 5.90381C6.12279 4.68482 7.77609 4 9.5 4ZM9.5 6C7 6 5 8 5 10.5C5 13 7 15 9.5 15C12 15 14 13 14 10.5C14 8 12 6 9.5 6Z" fill="white"/>
</svg>
